<?xml version="1.0" encoding="UTF-8"?>
<!DOCTYPE svg PUBLIC "-//W3C//DTD SVG 1.1//EN" "http://www.w3.org/Graphics/SVG/1.1/DTD/svg11.dtd">
<!-- Creator: CorelDRAW 2017 -->
<svg xmlns="http://www.w3.org/2000/svg" xml:space="preserve" width="497px" height="497px" version="1.1" style="shape-rendering:geometricPrecision; text-rendering:geometricPrecision; image-rendering:optimizeQuality; fill-rule:evenodd; clip-rule:evenodd"
viewBox="0 0 497 497"
 xmlns:xlink="http://www.w3.org/1999/xlink">
 <defs>
  <style type="text/css">
   <![CDATA[
    .fil0 {fill:#12955E;fill-rule:nonzero}
    .fil1 {fill:#12955E;fill-opacity:0.901961}
    .fil2 {fill:#17C37B;fill-opacity:0.901961}
    .fil7 {fill:#27E696;fill-opacity:0.901961}
    .fil5 {fill:#12955E;fill-rule:nonzero;fill-opacity:0.901961}
    .fil4 {fill:#17C37B;fill-rule:nonzero;fill-opacity:0.901961}
    .fil3 {fill:#27E696;fill-rule:nonzero;fill-opacity:0.901961}
    .fil6 {fill:#55EBAC;fill-rule:nonzero;fill-opacity:0.901961}
   ]]>
  </style>
 </defs>
 <g id="Layer_x0020_1">
  <metadata id="CorelCorpID_0Corel-Layer"/>
  <line class="fil0" x1="-3320.18" y1="502.73" x2="248.5" y2= "248.5" />
  <g id="_1306901803392">
   <polygon class="fil1" points="153.98,372.79 203.68,372.79 203.68,248.54 153.98,248.54 "/>
   <polygon class="fil1" points="273.46,372.78 323.16,372.78 273.47,248.52 223.77,248.52 "/>
   <path class="fil2" d="M313.08 124.27c-10.84,-0.07 -23.05,9.2 -27.41,19.76l-33.91 84.73c-4.38,10.59 -16.66,19.9 -27.53,19.76 16.58,0.08 33.14,0 49.71,0 10.82,0.14 23.02,-9.07 27.46,-19.59l33.93 -84.82c4.35,-10.61 16.68,-19.98 27.58,-19.84 -16.62,-0.11 -34.12,0 -49.83,0z"/>
   <path class="fil3" d="M248.5 497l-214.67 -123.93c44.37,76.6 126.14,123.81 214.67,123.93z"/>
   <path class="fil4" d="M463.31 372.99l-214.81 124.01c88.59,-0.09 170.42,-47.33 214.81,-124.01z"/>
   <path class="fil5" d="M463.71 124.88l0 247.45c21.74,-37.66 33.22,-80.35 33.29,-123.83 -0.11,-43.4 -11.59,-86.03 -33.29,-123.62z"/>
   <path class="fil6" d="M33.29 124.69c-21.74,37.65 -33.22,80.33 -33.29,123.81 0.11,43.42 11.58,86.04 33.29,123.63l0 -247.44z"/>
   <path class="fil3" d="M248.5 0c-88.59,0.09 -170.42,47.34 -214.8,124.02l214.8 -124.02z"/>
   <path class="fil4" d="M248.5 0l214.67 123.94c-44.36,-76.6 -126.14,-123.81 -214.67,-123.94z"/>
   <path class="fil7" d="M274.02 248.6c10.83,0.07 23.04,-9.2 27.41,-19.75l33.9 -84.74c4.38,-10.59 16.66,-19.9 27.53,-19.76 -16.57,-0.07 -33.13,0 -49.71,0 -10.81,-0.14 -23.02,9.07 -27.46,19.6l-33.93 84.81c-4.35,10.62 -16.68,19.99 -27.58,19.84 12.13,0.08 24.72,0.04 36.74,0.02l0.52 0 0.96 -0.01 3.88 0 0.35 0 1.16 -0.01 0.83 0 0.18 0 0.32 0 0.06 0 0.71 0 0.41 0 0.18 0 0.94 0 0.49 0 0.63 0 0.01 0 0.73 0 0.74 0z"/>
   <path class="fil7" d="M194.19 124.29c-11.03,0 -19.99,8.86 -20.11,19.86l0 84.51c-0.12,10.99 -9.07,19.88 -20.1,19.88l49.7 0c11.03,0 19.97,-8.89 20.1,-19.88 0,-3.32 0,-70.67 0,-84.51 0.12,-11 9.08,-19.86 20.11,-19.86l-49.7 0z"/>
  </g>
 </g>
</svg>
